<svg width="228" height="87" viewBox="0 0 228 87" fill="none" xmlns="http://www.w3.org/2000/svg">
    <g clip-path="url(#clip0_14_288)">
    <path d="M50.7083 26.1532L37.42 43.4026L28.3127 31.5805C26.9919 29.866 24.4017 29.866 23.0809 31.5805L13.9737 43.4026L0.685325 26.1532C-0.541955 24.56 -0.0658427 22.2508 1.69197 21.2708L24.0875 8.7844C25.0876 8.22681 26.3061 8.22682 27.3061 8.7844L49.7017 21.2708C51.4593 22.2508 51.9357 24.56 50.7083 26.1532Z" fill="#08091E"/>
    <path d="M13.9733 43.4026L23.0806 55.2246C24.4013 56.9392 26.9915 56.9392 28.3123 55.2246L37.4196 43.4026L50.7084 60.6528C51.9355 62.2455 51.4599 64.5542 49.7025 65.5347L27.3064 78.0288C26.3059 78.5868 25.087 78.5868 24.0864 78.0288L1.69027 65.5347C-0.0670073 64.5542 -0.542728 62.2455 0.684349 60.6528L13.9733 43.4026Z" fill="#08091E"/>
    </g>
    <path d="M122.72 44.4396C120.452 46.6399 117.662 47.7401 114.35 47.7401C111.038 47.7401 108.248 46.6286 105.98 44.4056C103.757 42.2507 102.645 39.574 102.645 36.3756C102.645 33.1773 103.746 30.512 105.946 28.3797C108.237 26.1341 111.038 25.0112 114.35 25.0112C117.707 25.0112 120.509 26.1341 122.754 28.3797C124.932 30.4893 126.021 33.1546 126.021 36.3756C126.021 39.5513 124.921 42.2393 122.72 44.4396ZM114.35 43.1467C116.346 43.1467 117.945 42.5229 119.148 41.2753C120.486 39.9823 121.155 38.3491 121.155 36.3756C121.155 34.4929 120.509 32.8824 119.216 31.5441C117.923 30.2511 116.301 29.6046 114.35 29.6046C112.377 29.6046 110.766 30.2511 109.518 31.5441C108.203 32.8597 107.545 34.4702 107.545 36.3756C107.545 38.3037 108.191 39.937 109.484 41.2753C110.8 42.5229 112.422 43.1467 114.35 43.1467ZM142.388 47.4338L142.115 44.8819C141.571 45.7666 140.811 46.4698 139.836 46.9915C138.883 47.4905 137.817 47.7401 136.637 47.7401C134.301 47.7401 132.361 46.9915 130.819 45.4944C129.14 43.8612 128.301 41.7516 128.301 39.1657C128.301 36.5571 129.129 34.4476 130.785 32.837C132.35 31.3172 134.301 30.5573 136.637 30.5573C138.588 30.5573 140.176 31.2265 141.401 32.5648V23.6162H146.062V47.4338H142.388ZM137.284 43.4189C138.509 43.4189 139.495 43.0219 140.244 42.228C141.083 41.4567 141.503 40.436 141.503 39.1657C141.503 37.8954 141.083 36.8747 140.244 36.1034C139.495 35.3095 138.509 34.9126 137.284 34.9126C136.15 34.9126 135.163 35.3095 134.324 36.1034C133.507 36.9201 133.099 37.9408 133.099 39.1657C133.099 40.4587 133.507 41.4908 134.324 42.262C135.14 43.0332 136.127 43.4189 137.284 43.4189ZM166.275 30.8636L155.999 54.2389H151.406L154.74 46.0728L148.207 30.8636H153.277L157.258 40.7649L161.341 30.8636H166.275ZM173.811 37.2603L175.682 37.6346C177.316 37.9748 178.563 38.5306 179.425 39.3018C180.287 40.0504 180.718 41.1052 180.718 42.4662C180.718 44.0086 180.072 45.2789 178.779 46.277C177.486 47.2524 175.818 47.7401 173.777 47.7401C171.282 47.7401 168.968 47.1957 166.836 46.1069L168.605 42.4662C170.397 43.4415 172.008 43.9292 173.437 43.9292C174.185 43.9292 174.786 43.7931 175.24 43.5209C175.716 43.2261 175.955 42.8404 175.955 42.3641C175.955 41.7289 175.376 41.298 174.219 41.0711L172.076 40.6628C168.855 40.0957 167.244 38.4625 167.244 35.7632C167.244 34.2207 167.857 32.9618 169.081 31.9864C170.306 31.011 171.894 30.5233 173.845 30.5233C176.249 30.5233 178.416 31.1131 180.344 32.2926L178.779 35.8312C177.168 34.8332 175.614 34.3341 174.117 34.3341C173.437 34.3341 172.881 34.4702 172.45 34.7424C172.042 35.0146 171.837 35.3776 171.837 35.8312C171.837 36.2169 171.985 36.5231 172.28 36.7499C172.575 36.9541 173.085 37.1242 173.811 37.2603ZM199.73 44.5077C197.938 46.6626 195.386 47.7401 192.074 47.7401C189.397 47.7401 187.231 46.9121 185.575 45.2562C183.987 43.7591 183.193 41.7289 183.193 39.1657C183.193 36.6478 183.999 34.6177 185.609 33.0752C187.333 31.3966 189.431 30.5573 191.904 30.5573C194.422 30.5573 196.486 31.3513 198.096 32.9391C199.616 34.3908 200.376 36.5685 200.376 39.4719V40.5267H188.025C188.206 41.3433 188.513 41.9671 188.944 42.3981C189.783 43.2374 190.872 43.657 192.21 43.657C194.002 43.657 195.51 43.0673 196.735 41.8877L199.73 44.5077ZM189.012 35.457C188.467 36.0467 188.116 36.7046 187.957 37.4304H195.613C195.476 36.5911 195.159 35.922 194.66 35.4229C194.002 34.7651 193.083 34.4135 191.904 34.3682C190.724 34.3682 189.76 34.7311 189.012 35.457ZM208.379 38.4172V47.4338H203.717V30.8636H207.494L207.732 33.4835C209.002 31.5327 210.738 30.5573 212.938 30.5573C214.843 30.5573 216.42 31.1471 217.668 32.3266C219.051 33.6423 219.743 35.491 219.743 37.8728V47.4338H215.082V38.4512C215.082 37.317 214.753 36.421 214.095 35.7632C213.528 35.1961 212.768 34.9126 211.815 34.9126C210.931 34.9126 210.171 35.1734 209.536 35.6951C208.764 36.3983 208.379 37.3057 208.379 38.4172Z" fill="black"/>
    <path d="M109.23 61.9906H108.298C108.288 61.7181 108.232 61.4787 108.13 61.2724C108.028 61.0662 107.891 60.893 107.718 60.753C107.547 60.6103 107.351 60.5034 107.129 60.4321C106.908 60.3608 106.671 60.3251 106.419 60.3251C105.935 60.3251 105.477 60.4486 105.044 60.6957C104.611 60.9401 104.24 61.3005 103.932 61.7767C103.624 62.2503 103.414 62.8309 103.302 63.5185C103.19 64.1857 103.206 64.7472 103.352 65.2031C103.497 65.6589 103.737 66.0039 104.073 66.2382C104.41 66.4725 104.809 66.5897 105.273 66.5897C105.54 66.5897 105.803 66.554 106.06 66.4827C106.32 66.4114 106.561 66.3057 106.786 66.1657C107.012 66.023 107.213 65.8486 107.389 65.6423C107.567 65.4335 107.707 65.1941 107.809 64.9242H108.757C108.617 65.324 108.427 65.6818 108.187 65.9976C107.951 66.3134 107.677 66.582 107.366 66.8036C107.055 67.0226 106.721 67.1894 106.362 67.304C106.002 67.4186 105.629 67.4759 105.242 67.4759C104.565 67.4759 103.988 67.3103 103.512 66.9793C103.038 66.6457 102.7 66.1746 102.496 65.5659C102.295 64.9548 102.263 64.2315 102.4 63.3963C102.538 62.5814 102.801 61.8785 103.191 61.2877C103.581 60.6944 104.058 60.2385 104.624 59.9202C105.189 59.5994 105.803 59.4389 106.465 59.4389C106.862 59.4389 107.227 59.4962 107.561 59.6108C107.895 59.7254 108.185 59.8935 108.432 60.115C108.679 60.334 108.871 60.6014 109.009 60.9172C109.149 61.2304 109.223 61.5882 109.23 61.9906ZM112.174 67.4911C111.635 67.4911 111.182 67.3625 110.818 67.1053C110.454 66.8481 110.197 66.4878 110.047 66.0243C109.899 65.5608 109.875 65.021 109.974 64.4047C110.071 63.8037 110.263 63.2804 110.551 62.8348C110.841 62.3866 111.202 62.0402 111.632 61.7958C112.065 61.5487 112.541 61.4252 113.061 61.4252C113.6 61.4252 114.051 61.5551 114.413 61.8149C114.777 62.0721 115.034 62.4337 115.184 62.8997C115.335 63.3632 115.36 63.9056 115.261 64.5269C115.164 65.1228 114.969 65.6436 114.676 66.0893C114.386 66.5324 114.026 66.8774 113.595 67.1244C113.168 67.3689 112.694 67.4911 112.174 67.4911ZM112.19 66.6813C112.602 66.6813 112.96 66.5756 113.263 66.3643C113.569 66.1529 113.816 65.8741 114.004 65.5277C114.195 65.1814 114.324 64.8071 114.39 64.4047C114.451 64.0227 114.448 63.6675 114.382 63.339C114.316 63.0079 114.175 62.7418 113.958 62.5406C113.742 62.3369 113.437 62.235 113.045 62.235C112.633 62.235 112.272 62.342 111.964 62.5559C111.659 62.7698 111.412 63.0512 111.223 63.4001C111.035 63.749 110.909 64.1246 110.845 64.5269C110.784 64.9089 110.785 65.2642 110.849 65.5927C110.915 65.9186 111.056 66.1822 111.273 66.3834C111.492 66.582 111.797 66.6813 112.19 66.6813ZM116.171 67.3689L117.149 61.5016H118.02L117.867 62.3878H117.928C118.081 62.0975 118.314 61.862 118.627 61.6812C118.94 61.5004 119.273 61.41 119.624 61.41C119.693 61.41 119.776 61.4112 119.872 61.4138C119.969 61.4138 120.044 61.4176 120.098 61.4252L119.945 62.342C119.914 62.3344 119.846 62.3229 119.739 62.3076C119.632 62.2898 119.517 62.2809 119.395 62.2809C119.11 62.2809 118.846 62.3407 118.604 62.4604C118.362 62.5776 118.16 62.7405 117.997 62.9494C117.834 63.1556 117.729 63.3912 117.684 63.656L117.072 67.3689H116.171ZM122.46 67.4911C121.897 67.4911 121.433 67.3663 121.066 67.1168C120.699 66.8647 120.443 66.5133 120.298 66.0625C120.153 65.6092 120.13 65.0821 120.229 64.4811C120.329 63.8801 120.526 63.3504 120.822 62.8921C121.117 62.4311 121.485 62.0721 121.925 61.8149C122.366 61.5551 122.85 61.4252 123.377 61.4252C123.683 61.4252 123.977 61.4762 124.259 61.578C124.542 61.6799 124.786 61.8454 124.993 62.0746C125.199 62.3013 125.343 62.6017 125.424 62.9761C125.506 63.3504 125.501 63.8114 125.409 64.3589L125.348 64.7409H120.825L120.948 63.9616H124.553C124.612 63.6306 124.597 63.3352 124.508 63.0754C124.421 62.8157 124.27 62.6107 124.053 62.4604C123.839 62.3102 123.568 62.235 123.239 62.235C122.901 62.235 122.585 62.3267 122.292 62.5101C121.999 62.6909 121.755 62.9201 121.559 63.1976C121.363 63.4727 121.24 63.7528 121.192 64.038L121.085 64.7103C121.009 65.1967 121.02 65.5838 121.119 65.8715C121.221 66.1593 121.398 66.3668 121.65 66.4942C121.903 66.6189 122.218 66.6813 122.598 66.6813C122.84 66.6813 123.062 66.6482 123.266 66.582C123.47 66.5133 123.652 66.4114 123.812 66.2764C123.973 66.1389 124.108 65.9683 124.217 65.7646L125.042 66.009C124.902 66.3044 124.705 66.5642 124.45 66.7883C124.198 67.0098 123.903 67.183 123.564 67.3078C123.228 67.43 122.86 67.4911 122.46 67.4911ZM131.889 67.3689H129.445L130.744 59.5459H133.234C133.993 59.5459 134.618 59.705 135.11 60.0234C135.604 60.3417 135.947 60.7962 136.141 61.387C136.337 61.9778 136.366 62.6832 136.229 63.5032C136.096 64.3079 135.839 64.9993 135.457 65.5774C135.078 66.1529 134.586 66.596 133.983 66.9067C133.382 67.2148 132.684 67.3689 131.889 67.3689ZM130.533 66.5285H131.92C132.567 66.5285 133.125 66.4012 133.593 66.1466C134.064 65.8919 134.444 65.529 134.731 65.0579C135.022 64.5868 135.22 64.0278 135.327 63.381C135.434 62.7596 135.424 62.2261 135.297 61.7805C135.172 61.3323 134.926 60.9885 134.56 60.7491C134.195 60.5072 133.708 60.3862 133.097 60.3862H131.55L130.533 66.5285ZM139.499 67.4911C138.936 67.4911 138.471 67.3663 138.104 67.1168C137.738 66.8647 137.482 66.5133 137.337 66.0625C137.191 65.6092 137.168 65.0821 137.268 64.4811C137.367 63.8801 137.564 63.3504 137.86 62.8921C138.155 62.4311 138.523 62.0721 138.964 61.8149C139.404 61.5551 139.888 61.4252 140.415 61.4252C140.721 61.4252 141.015 61.4762 141.298 61.578C141.58 61.6799 141.825 61.8454 142.031 62.0746C142.237 62.3013 142.381 62.6017 142.463 62.9761C142.544 63.3504 142.539 63.8114 142.447 64.3589L142.386 64.7409H137.864L137.986 63.9616H141.592C141.65 63.6306 141.635 63.3352 141.546 63.0754C141.459 62.8157 141.308 62.6107 141.091 62.4604C140.878 62.3102 140.606 62.235 140.278 62.235C139.939 62.235 139.623 62.3267 139.33 62.5101C139.038 62.6909 138.793 62.9201 138.597 63.1976C138.401 63.4727 138.279 63.7528 138.23 64.038L138.123 64.7103C138.047 65.1967 138.058 65.5838 138.158 65.8715C138.26 66.1593 138.437 66.3668 138.689 66.4942C138.941 66.6189 139.257 66.6813 139.636 66.6813C139.878 66.6813 140.101 66.6482 140.305 66.582C140.508 66.5133 140.69 66.4114 140.851 66.2764C141.011 66.1389 141.146 65.9683 141.256 65.7646L142.081 66.009C141.941 66.3044 141.743 66.5642 141.489 66.7883C141.237 67.0098 140.941 67.183 140.603 67.3078C140.266 67.43 139.898 67.4911 139.499 67.4911ZM148.933 61.5016L145.785 67.3689H144.868L143.677 61.5016H144.616L145.457 66.1771H145.518L147.917 61.5016H148.933ZM151.379 67.4911C150.816 67.4911 150.352 67.3663 149.985 67.1168C149.618 66.8647 149.362 66.5133 149.217 66.0625C149.072 65.6092 149.049 65.0821 149.148 64.4811C149.248 63.8801 149.445 63.3504 149.74 62.8921C150.036 62.4311 150.404 62.0721 150.844 61.8149C151.285 61.5551 151.769 61.4252 152.296 61.4252C152.602 61.4252 152.896 61.4762 153.178 61.578C153.461 61.6799 153.705 61.8454 153.912 62.0746C154.118 62.3013 154.262 62.6017 154.343 62.9761C154.425 63.3504 154.42 63.8114 154.328 64.3589L154.267 64.7409H149.744L149.867 63.9616H153.472C153.531 63.6306 153.516 63.3352 153.427 63.0754C153.34 62.8157 153.189 62.6107 152.972 62.4604C152.758 62.3102 152.487 62.235 152.158 62.235C151.82 62.235 151.504 62.3267 151.211 62.5101C150.918 62.6909 150.674 62.9201 150.478 63.1976C150.282 63.4727 150.159 63.7528 150.111 64.038L150.004 64.7103C149.928 65.1967 149.939 65.5838 150.038 65.8715C150.14 66.1593 150.317 66.3668 150.569 66.4942C150.821 66.6189 151.137 66.6813 151.517 66.6813C151.759 66.6813 151.981 66.6482 152.185 66.582C152.389 66.5133 152.571 66.4114 152.731 66.2764C152.892 66.1389 153.027 65.9683 153.136 65.7646L153.961 66.009C153.821 66.3044 153.624 66.5642 153.369 66.7883C153.117 67.0098 152.822 67.183 152.483 67.3078C152.147 67.43 151.779 67.4911 151.379 67.4911ZM157.416 59.5459L156.118 67.3689H155.216L156.515 59.5459H157.416ZM160.191 67.4911C159.651 67.4911 159.199 67.3625 158.835 67.1053C158.47 66.8481 158.213 66.4878 158.063 66.0243C157.915 65.5608 157.891 65.021 157.99 64.4047C158.087 63.8037 158.279 63.2804 158.567 62.8348C158.857 62.3866 159.218 62.0402 159.648 61.7958C160.081 61.5487 160.557 61.4252 161.077 61.4252C161.617 61.4252 162.067 61.5551 162.429 61.8149C162.793 62.0721 163.05 62.4337 163.201 62.8997C163.351 63.3632 163.376 63.9056 163.277 64.5269C163.18 65.1228 162.985 65.6436 162.693 66.0893C162.402 66.5324 162.042 66.8774 161.612 67.1244C161.184 67.3689 160.71 67.4911 160.191 67.4911ZM160.206 66.6813C160.618 66.6813 160.976 66.5756 161.279 66.3643C161.585 66.1529 161.832 65.8741 162.02 65.5277C162.211 65.1814 162.34 64.8071 162.406 64.4047C162.467 64.0227 162.465 63.6675 162.398 63.339C162.332 63.0079 162.191 62.7418 161.974 62.5406C161.758 62.3369 161.454 62.235 161.062 62.235C160.649 62.235 160.289 62.342 159.98 62.5559C159.675 62.7698 159.428 63.0512 159.239 63.4001C159.051 63.749 158.925 64.1246 158.861 64.5269C158.8 64.9089 158.801 65.2642 158.865 65.5927C158.931 65.9186 159.073 66.1822 159.289 66.3834C159.508 66.582 159.814 66.6813 160.206 66.6813ZM163.82 69.5691L165.173 61.5016H166.044L165.891 62.4337H165.998C166.079 62.3318 166.191 62.2019 166.334 62.0441C166.479 61.8836 166.674 61.741 166.918 61.6162C167.165 61.4889 167.48 61.4252 167.862 61.4252C168.356 61.4252 168.77 61.5487 169.103 61.7958C169.437 62.0428 169.672 62.3929 169.81 62.8462C169.947 63.2995 169.965 63.8343 169.863 64.4505C169.761 65.0719 169.567 65.6105 169.279 66.0663C168.991 66.5196 168.64 66.871 168.225 67.1206C167.81 67.3676 167.358 67.4911 166.869 67.4911C166.492 67.4911 166.2 67.4287 165.994 67.304C165.788 67.1766 165.637 67.0328 165.543 66.8723C165.449 66.7093 165.376 66.5744 165.325 66.4674H165.249L164.73 69.5691H163.82ZM165.57 64.4353C165.499 64.8784 165.499 65.2693 165.57 65.608C165.644 65.9441 165.79 66.2077 166.009 66.3987C166.231 66.5871 166.522 66.6813 166.884 66.6813C167.261 66.6813 167.591 66.582 167.873 66.3834C168.158 66.1822 168.393 65.9123 168.576 65.5736C168.762 65.2323 168.891 64.8529 168.962 64.4353C169.028 64.0227 169.026 63.6509 168.954 63.3199C168.883 62.9863 168.738 62.7227 168.519 62.5292C168.3 62.3331 167.999 62.235 167.617 62.235C167.251 62.235 166.926 62.328 166.643 62.5139C166.363 62.6972 166.131 62.9544 165.948 63.2855C165.767 63.614 165.641 63.9973 165.57 64.4353ZM170.752 67.3689L171.73 61.5016H172.601L172.448 62.4184H172.525C172.701 62.1052 172.939 61.862 173.239 61.6888C173.542 61.5131 173.885 61.4252 174.267 61.4252C174.649 61.4252 174.956 61.5131 175.187 61.6888C175.419 61.862 175.581 62.1052 175.672 62.4184H175.733C175.932 62.1128 176.197 61.8709 176.528 61.6926C176.862 61.5144 177.238 61.4252 177.659 61.4252C178.178 61.4252 178.578 61.5895 178.858 61.918C179.141 62.2465 179.225 62.7545 179.11 63.4421L178.453 67.3689H177.552L178.209 63.4421C178.277 63.0067 178.209 62.6972 178.002 62.5139C177.799 62.328 177.536 62.235 177.216 62.235C176.803 62.235 176.463 62.3586 176.196 62.6056C175.928 62.8526 175.764 63.1671 175.703 63.5491L175.061 67.3689H174.144L174.817 63.3504C174.87 63.0143 174.807 62.7444 174.626 62.5406C174.445 62.3369 174.183 62.235 173.839 62.235C173.605 62.235 173.375 62.2987 173.151 62.426C172.927 62.5508 172.735 62.724 172.574 62.9455C172.414 63.1645 172.311 63.4166 172.265 63.7019L171.654 67.3689H170.752ZM182.546 67.4911C181.983 67.4911 181.519 67.3663 181.152 67.1168C180.785 66.8647 180.529 66.5133 180.384 66.0625C180.239 65.6092 180.216 65.0821 180.315 64.4811C180.415 63.8801 180.612 63.3504 180.907 62.8921C181.203 62.4311 181.571 62.0721 182.011 61.8149C182.452 61.5551 182.936 61.4252 183.463 61.4252C183.768 61.4252 184.063 61.4762 184.345 61.578C184.628 61.6799 184.872 61.8454 185.079 62.0746C185.285 62.3013 185.429 62.6017 185.51 62.9761C185.592 63.3504 185.587 63.8114 185.495 64.3589L185.434 64.7409H180.911L181.033 63.9616H184.639C184.698 63.6306 184.683 63.3352 184.594 63.0754C184.507 62.8157 184.355 62.6107 184.139 62.4604C183.925 62.3102 183.654 62.235 183.325 62.235C182.987 62.235 182.671 62.3267 182.378 62.5101C182.085 62.6909 181.841 62.9201 181.645 63.1976C181.449 63.4727 181.326 63.7528 181.278 64.038L181.171 64.7103C181.095 65.1967 181.106 65.5838 181.205 65.8715C181.307 66.1593 181.484 66.3668 181.736 66.4942C181.988 66.6189 182.304 66.6813 182.684 66.6813C182.926 66.6813 183.148 66.6482 183.352 66.582C183.556 66.5133 183.738 66.4114 183.898 66.2764C184.059 66.1389 184.194 65.9683 184.303 65.7646L185.128 66.009C184.988 66.3044 184.791 66.5642 184.536 66.7883C184.284 67.0098 183.989 67.183 183.65 67.3078C183.314 67.43 182.946 67.4911 182.546 67.4911ZM187.865 63.8394L187.285 67.3689H186.383L187.361 61.5016H188.232L188.079 62.4184H188.156C188.339 62.1205 188.587 61.8811 188.9 61.7003C189.214 61.5169 189.592 61.4252 190.035 61.4252C190.427 61.4252 190.758 61.5067 191.028 61.6697C191.301 61.8301 191.493 62.0746 191.605 62.4031C191.719 62.7291 191.736 63.1416 191.655 63.6407L191.028 67.3689H190.127L190.738 63.7019C190.814 63.2435 190.754 62.8844 190.558 62.6247C190.365 62.3649 190.058 62.235 189.638 62.235C189.347 62.235 189.079 62.2974 188.832 62.4222C188.587 62.547 188.38 62.7291 188.209 62.9685C188.041 63.2078 187.926 63.4981 187.865 63.8394ZM196.205 61.5016L196.083 62.2656H193.042L193.164 61.5016H196.205ZM194.28 60.0959H195.181L194.249 65.6882C194.208 65.9428 194.215 66.1338 194.268 66.2611C194.324 66.3859 194.408 66.47 194.52 66.5133C194.635 66.554 194.758 66.5744 194.891 66.5744C194.99 66.5744 195.072 66.5693 195.135 66.5591C195.199 66.5464 195.25 66.5362 195.288 66.5285L195.349 67.3383C195.281 67.3613 195.188 67.3842 195.07 67.4071C194.956 67.4326 194.814 67.4453 194.646 67.4453C194.392 67.4453 194.152 67.3905 193.928 67.281C193.704 67.1715 193.532 67.0047 193.413 66.7806C193.293 66.5565 193.261 66.2739 193.317 65.9326L194.28 60.0959ZM200.464 60.3862L200.602 59.5459H206.469L206.331 60.3862H203.871L202.71 67.3689H201.763L202.924 60.3862H200.464ZM208.104 67.4911C207.541 67.4911 207.076 67.3663 206.709 67.1168C206.343 66.8647 206.087 66.5133 205.942 66.0625C205.796 65.6092 205.774 65.0821 205.873 64.4811C205.972 63.8801 206.17 63.3504 206.465 62.8921C206.76 62.4311 207.128 62.0721 207.569 61.8149C208.009 61.5551 208.493 61.4252 209.02 61.4252C209.326 61.4252 209.62 61.4762 209.903 61.578C210.185 61.6799 210.43 61.8454 210.636 62.0746C210.842 62.3013 210.986 62.6017 211.068 62.9761C211.149 63.3504 211.144 63.8114 211.053 64.3589L210.991 64.7409H206.469L206.591 63.9616H210.197C210.256 63.6306 210.24 63.3352 210.151 63.0754C210.065 62.8157 209.913 62.6107 209.697 62.4604C209.483 62.3102 209.211 62.235 208.883 62.235C208.544 62.235 208.228 62.3267 207.936 62.5101C207.643 62.6909 207.398 62.9201 207.202 63.1976C207.006 63.4727 206.884 63.7528 206.835 64.038L206.729 64.7103C206.652 65.1967 206.664 65.5838 206.763 65.8715C206.865 66.1593 207.042 66.3668 207.294 66.4942C207.546 66.6189 207.862 66.6813 208.241 66.6813C208.483 66.6813 208.706 66.6482 208.91 66.582C209.113 66.5133 209.295 66.4114 209.456 66.2764C209.616 66.1389 209.751 65.9683 209.861 65.7646L210.686 66.009C210.546 66.3044 210.348 66.5642 210.094 66.7883C209.842 67.0098 209.546 67.183 209.208 67.3078C208.871 67.43 208.503 67.4911 208.104 67.4911ZM213.652 67.5064C213.28 67.5064 212.954 67.4364 212.674 67.2963C212.394 67.1537 212.186 66.9487 212.051 66.6813C211.916 66.4114 211.88 66.0854 211.941 65.7035C211.999 65.3673 212.113 65.0948 212.281 64.886C212.449 64.6746 212.652 64.5091 212.892 64.3894C213.134 64.2672 213.393 64.1768 213.671 64.1182C213.951 64.0571 214.23 64.01 214.508 63.9769C214.869 63.931 215.163 63.8954 215.39 63.8699C215.617 63.8445 215.787 63.8024 215.902 63.7439C216.016 63.6853 216.086 63.5847 216.112 63.4421V63.4116C216.173 63.0372 216.123 62.7456 215.963 62.5368C215.803 62.3254 215.516 62.2198 215.104 62.2198C214.676 62.2198 214.318 62.314 214.03 62.5024C213.742 62.6909 213.53 62.8921 213.392 63.106L212.598 62.8004C212.807 62.4439 213.056 62.1663 213.346 61.9677C213.637 61.7665 213.941 61.6264 214.259 61.5475C214.578 61.466 214.885 61.4252 215.18 61.4252C215.368 61.4252 215.581 61.4482 215.818 61.494C216.055 61.5373 216.276 61.6277 216.482 61.7652C216.691 61.9027 216.848 62.1103 216.952 62.3878C217.059 62.6654 217.075 63.0372 216.998 63.5032L216.356 67.3689H215.455L215.592 66.5744H215.547C215.465 66.7017 215.34 66.8379 215.172 66.9831C215.007 67.1282 214.797 67.2518 214.542 67.3536C214.29 67.4555 213.993 67.5064 213.652 67.5064ZM213.912 66.6966C214.268 66.6966 214.58 66.6266 214.848 66.4865C215.118 66.3465 215.334 66.1657 215.497 65.9441C215.662 65.7225 215.766 65.4895 215.806 65.2451L215.944 64.42C215.898 64.4658 215.808 64.5078 215.673 64.546C215.538 64.5817 215.385 64.6135 215.214 64.6415C215.046 64.667 214.882 64.6899 214.722 64.7103C214.564 64.7281 214.436 64.7434 214.34 64.7561C214.1 64.7867 213.872 64.8363 213.656 64.9051C213.442 64.9713 213.261 65.0719 213.113 65.2069C212.968 65.3393 212.878 65.5201 212.842 65.7493C212.789 66.0625 212.864 66.2993 213.068 66.4598C213.271 66.6177 213.553 66.6966 213.912 66.6966ZM218.002 67.3689L218.98 61.5016H219.851L219.698 62.4184H219.774C219.95 62.1052 220.188 61.862 220.489 61.6888C220.792 61.5131 221.134 61.4252 221.516 61.4252C221.898 61.4252 222.205 61.5131 222.437 61.6888C222.668 61.862 222.83 62.1052 222.922 62.4184H222.983C223.181 62.1128 223.446 61.8709 223.777 61.6926C224.111 61.5144 224.488 61.4252 224.908 61.4252C225.428 61.4252 225.827 61.5895 226.107 61.918C226.39 62.2465 226.474 62.7545 226.36 63.4421L225.703 67.3689H224.801L225.458 63.4421C225.527 63.0067 225.458 62.6972 225.252 62.5139C225.048 62.328 224.786 62.235 224.465 62.235C224.052 62.235 223.712 62.3586 223.445 62.6056C223.178 62.8526 223.013 63.1671 222.952 63.5491L222.311 67.3689H221.394L222.066 63.3504C222.12 63.0143 222.056 62.7444 221.875 62.5406C221.694 62.3369 221.432 62.235 221.088 62.235C220.854 62.235 220.625 62.2987 220.401 62.426C220.177 62.5508 219.984 62.724 219.824 62.9455C219.663 63.1645 219.56 63.4166 219.514 63.7019L218.903 67.3689H218.002Z" fill="black"/>
    <rect x="72.0098" width="8.96387" height="28.9832" fill="#343EF7"/>
    <rect x="72.0098" y="28.9832" width="8.96387" height="28.9832" fill="#7390FF"/>
    <rect x="72.0098" y="57.9663" width="8.96387" height="28.9832" fill="#C1D5FF"/>
    <defs>
    <clipPath id="clip0_14_288">
    <rect width="51.3928" height="70.0812" fill="white" transform="translate(0 8.36621)"/>
    </clipPath>
    </defs>
    </svg>
    