<svg width="223" height="87" viewBox="0 0 223 87" fill="none" xmlns="http://www.w3.org/2000/svg">
    <g clip-path="url(#clip0_14_270)">
    <path d="M50.7083 26.1532L37.42 43.4026L28.3127 31.5805C26.9919 29.866 24.4017 29.866 23.0809 31.5805L13.9737 43.4026L0.685325 26.1532C-0.541955 24.56 -0.0658427 22.2508 1.69197 21.2708L24.0875 8.7844C25.0876 8.22681 26.3061 8.22682 27.3061 8.7844L49.7017 21.2708C51.4593 22.2508 51.9357 24.56 50.7083 26.1532Z" fill="#1ED78D"/>
    <path d="M13.9733 43.4026L23.0806 55.2246C24.4013 56.9392 26.9915 56.9392 28.3123 55.2246L37.4196 43.4026L50.7084 60.6528C51.9355 62.2455 51.4599 64.5542 49.7025 65.5347L27.3064 78.0288C26.3059 78.5868 25.087 78.5868 24.0864 78.0288L1.69027 65.5347C-0.0670073 64.5542 -0.542728 62.2455 0.684349 60.6528L13.9733 43.4026Z" fill="#1ED78D"/>
    </g>
    <path d="M122.72 44.4396C120.452 46.6399 117.662 47.7401 114.35 47.7401C111.038 47.7401 108.248 46.6286 105.98 44.4056C103.757 42.2507 102.645 39.574 102.645 36.3756C102.645 33.1773 103.746 30.512 105.946 28.3797C108.237 26.1341 111.038 25.0112 114.35 25.0112C117.707 25.0112 120.509 26.1341 122.754 28.3797C124.932 30.4893 126.021 33.1546 126.021 36.3756C126.021 39.5513 124.921 42.2393 122.72 44.4396ZM114.35 43.1467C116.346 43.1467 117.945 42.5229 119.148 41.2753C120.486 39.9823 121.155 38.3491 121.155 36.3756C121.155 34.4929 120.509 32.8824 119.216 31.5441C117.923 30.2511 116.301 29.6046 114.35 29.6046C112.377 29.6046 110.766 30.2511 109.518 31.5441C108.203 32.8597 107.545 34.4702 107.545 36.3756C107.545 38.3037 108.191 39.937 109.484 41.2753C110.8 42.5229 112.422 43.1467 114.35 43.1467ZM142.388 47.4338L142.115 44.8819C141.571 45.7666 140.811 46.4698 139.836 46.9915C138.883 47.4905 137.817 47.7401 136.637 47.7401C134.301 47.7401 132.361 46.9915 130.819 45.4944C129.14 43.8612 128.301 41.7516 128.301 39.1657C128.301 36.5571 129.129 34.4476 130.785 32.837C132.35 31.3172 134.301 30.5573 136.637 30.5573C138.588 30.5573 140.176 31.2265 141.401 32.5648V23.6162H146.062V47.4338H142.388ZM137.284 43.4189C138.509 43.4189 139.495 43.0219 140.244 42.228C141.083 41.4567 141.503 40.436 141.503 39.1657C141.503 37.8954 141.083 36.8747 140.244 36.1034C139.495 35.3095 138.509 34.9126 137.284 34.9126C136.15 34.9126 135.163 35.3095 134.324 36.1034C133.507 36.9201 133.099 37.9408 133.099 39.1657C133.099 40.4587 133.507 41.4908 134.324 42.262C135.14 43.0332 136.127 43.4189 137.284 43.4189ZM166.275 30.8636L155.999 54.2389H151.406L154.74 46.0728L148.207 30.8636H153.277L157.258 40.7649L161.341 30.8636H166.275ZM173.811 37.2603L175.682 37.6346C177.316 37.9748 178.563 38.5306 179.425 39.3018C180.287 40.0504 180.718 41.1052 180.718 42.4662C180.718 44.0086 180.072 45.2789 178.779 46.277C177.486 47.2524 175.818 47.7401 173.777 47.7401C171.282 47.7401 168.968 47.1957 166.836 46.1069L168.605 42.4662C170.397 43.4415 172.008 43.9292 173.437 43.9292C174.185 43.9292 174.786 43.7931 175.24 43.5209C175.716 43.2261 175.955 42.8404 175.955 42.3641C175.955 41.7289 175.376 41.298 174.219 41.0711L172.076 40.6628C168.855 40.0957 167.244 38.4625 167.244 35.7632C167.244 34.2207 167.857 32.9618 169.081 31.9864C170.306 31.011 171.894 30.5233 173.845 30.5233C176.249 30.5233 178.416 31.1131 180.344 32.2926L178.779 35.8312C177.168 34.8332 175.614 34.3341 174.117 34.3341C173.437 34.3341 172.881 34.4702 172.45 34.7424C172.042 35.0146 171.837 35.3776 171.837 35.8312C171.837 36.2169 171.985 36.5231 172.28 36.7499C172.575 36.9541 173.085 37.1242 173.811 37.2603ZM199.73 44.5077C197.938 46.6626 195.386 47.7401 192.074 47.7401C189.397 47.7401 187.231 46.9121 185.575 45.2562C183.987 43.7591 183.193 41.7289 183.193 39.1657C183.193 36.6478 183.999 34.6177 185.609 33.0752C187.333 31.3966 189.431 30.5573 191.904 30.5573C194.422 30.5573 196.486 31.3513 198.096 32.9391C199.616 34.3908 200.376 36.5685 200.376 39.4719V40.5267H188.025C188.206 41.3433 188.513 41.9671 188.944 42.3981C189.783 43.2374 190.872 43.657 192.21 43.657C194.002 43.657 195.51 43.0673 196.735 41.8877L199.73 44.5077ZM189.012 35.457C188.467 36.0467 188.116 36.7046 187.957 37.4304H195.613C195.476 36.5911 195.159 35.922 194.66 35.4229C194.002 34.7651 193.083 34.4135 191.904 34.3682C190.724 34.3682 189.76 34.7311 189.012 35.457ZM208.379 38.4172V47.4338H203.717V30.8636H207.494L207.732 33.4835C209.002 31.5327 210.738 30.5573 212.938 30.5573C214.843 30.5573 216.42 31.1471 217.668 32.3266C219.051 33.6423 219.743 35.491 219.743 37.8728V47.4338H215.082V38.4512C215.082 37.317 214.753 36.421 214.095 35.7632C213.528 35.1961 212.768 34.9126 211.815 34.9126C210.931 34.9126 210.171 35.1734 209.536 35.6951C208.764 36.3983 208.379 37.3057 208.379 38.4172Z" fill="black"/>
    <path d="M102.049 67.3689L103.348 59.5459H105.991C106.602 59.5459 107.085 59.6554 107.439 59.8744C107.795 60.0934 108.036 60.3901 108.161 60.7644C108.288 61.1388 108.313 61.5577 108.237 62.0211C108.161 62.4795 107.996 62.8971 107.744 63.274C107.495 63.6509 107.156 63.9514 106.728 64.1755C106.303 64.3996 105.787 64.5117 105.181 64.5117H103.287L103.424 63.6713H105.288C105.706 63.6713 106.055 63.5987 106.335 63.4536C106.615 63.3084 106.834 63.1111 106.992 62.8615C107.15 62.6119 107.254 62.3318 107.305 62.0211C107.356 61.7054 107.343 61.4252 107.267 61.1808C107.193 60.9338 107.039 60.7402 106.805 60.6002C106.573 60.4576 106.246 60.3862 105.823 60.3862H104.158L102.996 67.3689H102.049ZM112.839 64.97L113.42 61.5016H114.321L113.343 67.3689H112.442L112.61 66.3757H112.549C112.365 66.6737 112.109 66.9271 111.781 67.1359C111.452 67.3422 111.067 67.4453 110.624 67.4453C110.257 67.4453 109.944 67.3651 109.684 67.2046C109.427 67.0417 109.243 66.7972 109.134 66.4712C109.027 66.1427 109.014 65.7289 109.096 65.2298L109.722 61.5016H110.624L110.012 65.1687C109.944 65.5965 110.009 65.9377 110.207 66.1924C110.406 66.447 110.692 66.5744 111.067 66.5744C111.291 66.5744 111.528 66.5171 111.777 66.4025C112.029 66.2879 112.253 66.1122 112.449 65.8753C112.648 65.6385 112.778 65.3367 112.839 64.97ZM115.117 67.3689L116.415 59.5459H117.317L116.843 62.4337H116.92C117.001 62.3318 117.114 62.2019 117.26 62.0441C117.405 61.8836 117.599 61.741 117.844 61.6162C118.088 61.4889 118.402 61.4252 118.784 61.4252C119.278 61.4252 119.691 61.5487 120.025 61.7958C120.361 62.0428 120.597 62.3929 120.732 62.8462C120.869 63.2995 120.887 63.8343 120.785 64.4505C120.683 65.0719 120.489 65.6105 120.201 66.0663C119.916 66.5196 119.564 66.871 119.147 67.1206C118.731 67.3676 118.279 67.4911 117.79 67.4911C117.414 67.4911 117.122 67.4287 116.916 67.304C116.712 67.1766 116.562 67.0328 116.465 66.8723C116.371 66.7093 116.298 66.5744 116.247 66.4674H116.14L115.988 67.3689H115.117ZM116.492 64.4353C116.42 64.8784 116.422 65.2693 116.496 65.608C116.569 65.9441 116.716 66.2077 116.935 66.3987C117.154 66.5871 117.444 66.6813 117.806 66.6813C118.183 66.6813 118.514 66.582 118.799 66.3834C119.084 66.1822 119.318 65.9123 119.502 65.5736C119.685 65.2323 119.812 64.8529 119.884 64.4353C119.95 64.0227 119.947 63.6509 119.876 63.3199C119.807 62.9863 119.662 62.7227 119.441 62.5292C119.222 62.3331 118.921 62.235 118.539 62.235C118.172 62.235 117.848 62.328 117.565 62.5139C117.285 62.6972 117.053 62.9544 116.87 63.2855C116.689 63.614 116.563 63.9973 116.492 64.4353ZM123.875 59.5459L122.577 67.3689H121.675L122.974 59.5459H123.875ZM124.228 67.3689L125.206 61.5016H126.107L125.129 67.3689H124.228ZM125.931 60.5085C125.756 60.5085 125.604 60.4486 125.477 60.3289C125.352 60.2093 125.29 60.0654 125.29 59.8973C125.29 59.7292 125.352 59.5854 125.477 59.4657C125.604 59.346 125.756 59.2861 125.931 59.2861C126.107 59.2861 126.257 59.346 126.382 59.4657C126.51 59.5854 126.573 59.7292 126.573 59.8973C126.573 60.0654 126.51 60.2093 126.382 60.3289C126.257 60.4486 126.107 60.5085 125.931 60.5085ZM129.149 67.4911C128.596 67.4911 128.143 67.3613 127.789 67.1015C127.437 66.8418 127.193 66.484 127.055 66.0281C126.918 65.5723 126.898 65.0515 126.994 64.4658C127.091 63.8699 127.287 63.3441 127.583 62.8882C127.878 62.4299 128.246 62.0721 128.687 61.8149C129.127 61.5551 129.612 61.4252 130.142 61.4252C130.554 61.4252 130.914 61.5016 131.219 61.6544C131.525 61.8072 131.76 62.0211 131.926 62.2962C132.091 62.5712 132.169 62.8921 132.159 63.2588H131.257C131.232 62.9914 131.117 62.7545 130.914 62.5483C130.712 62.3395 130.414 62.235 130.02 62.235C129.668 62.235 129.345 62.3267 129.049 62.5101C128.754 62.6909 128.506 62.9468 128.305 63.2779C128.103 63.6064 127.967 63.9922 127.896 64.4353C127.819 64.8886 127.826 65.2833 127.915 65.6194C128.004 65.9556 128.166 66.2166 128.4 66.4025C128.634 66.5884 128.93 66.6813 129.286 66.6813C129.521 66.6813 129.74 66.6406 129.943 66.5591C130.147 66.4776 130.328 66.3605 130.486 66.2077C130.644 66.0549 130.768 65.8715 130.86 65.6576H131.762C131.649 66.0039 131.47 66.3159 131.223 66.5935C130.976 66.8685 130.677 67.0875 130.325 67.2505C129.974 67.4109 129.582 67.4911 129.149 67.4911ZM135.937 67.3689L137.235 59.5459H139.879C140.49 59.5459 140.974 59.649 141.33 59.8553C141.689 60.0616 141.932 60.3455 142.06 60.7071C142.19 61.0687 142.216 61.4813 142.14 61.9447C142.064 62.4031 141.901 62.8106 141.651 63.1671C141.404 63.5236 141.068 63.8037 140.643 64.0074C140.22 64.2112 139.705 64.313 139.099 64.313H136.96L137.113 63.4574H139.222C139.639 63.4574 139.986 63.3963 140.261 63.274C140.536 63.1518 140.75 62.9774 140.902 62.7507C141.055 62.5241 141.157 62.2554 141.208 61.9447C141.259 61.629 141.245 61.3552 141.166 61.1235C141.09 60.8892 140.933 60.7084 140.696 60.5811C140.462 60.4512 140.133 60.3862 139.711 60.3862H138.045L136.884 67.3689H135.937ZM140.2 63.8547L141.544 67.3689H140.444L139.13 63.8547H140.2ZM145.076 67.4911C144.514 67.4911 144.049 67.3663 143.682 67.1168C143.316 66.8647 143.06 66.5133 142.914 66.0625C142.769 65.6092 142.746 65.0821 142.846 64.4811C142.945 63.8801 143.142 63.3504 143.438 62.8921C143.733 62.4311 144.101 62.0721 144.542 61.8149C144.982 61.5551 145.466 61.4252 145.993 61.4252C146.299 61.4252 146.593 61.4762 146.876 61.578C147.158 61.6799 147.403 61.8454 147.609 62.0746C147.815 62.3013 147.959 62.6017 148.041 62.9761C148.122 63.3504 148.117 63.8114 148.025 64.3589L147.964 64.7409H143.442L143.564 63.9616H147.17C147.228 63.6306 147.213 63.3352 147.124 63.0754C147.037 62.8157 146.886 62.6107 146.669 62.4604C146.455 62.3102 146.184 62.235 145.856 62.235C145.517 62.235 145.201 62.3267 144.908 62.5101C144.616 62.6909 144.371 62.9201 144.175 63.1976C143.979 63.4727 143.857 63.7528 143.808 64.038L143.701 64.7103C143.625 65.1967 143.636 65.5838 143.736 65.8715C143.838 66.1593 144.015 66.3668 144.267 66.4942C144.519 66.6189 144.835 66.6813 145.214 66.6813C145.456 66.6813 145.679 66.6482 145.882 66.582C146.086 66.5133 146.268 66.4114 146.429 66.2764C146.589 66.1389 146.724 65.9683 146.834 65.7646L147.659 66.009C147.519 66.3044 147.321 66.5642 147.067 66.7883C146.814 67.0098 146.519 67.183 146.18 67.3078C145.844 67.43 145.476 67.4911 145.076 67.4911ZM151.114 59.5459L149.815 67.3689H148.913L150.212 59.5459H151.114ZM153.177 67.5064C152.806 67.5064 152.48 67.4364 152.2 67.2963C151.919 67.1537 151.712 66.9487 151.577 66.6813C151.442 66.4114 151.405 66.0854 151.466 65.7035C151.525 65.3673 151.638 65.0948 151.806 64.886C151.974 64.6746 152.178 64.5091 152.417 64.3894C152.659 64.2672 152.919 64.1768 153.196 64.1182C153.477 64.0571 153.755 64.01 154.033 63.9769C154.395 63.931 154.689 63.8954 154.915 63.8699C155.142 63.8445 155.313 63.8024 155.427 63.7439C155.542 63.6853 155.612 63.5847 155.637 63.4421V63.4116C155.698 63.0372 155.649 62.7456 155.488 62.5368C155.328 62.3254 155.041 62.2198 154.629 62.2198C154.201 62.2198 153.843 62.314 153.556 62.5024C153.268 62.6909 153.055 62.8921 152.918 63.106L152.123 62.8004C152.332 62.4439 152.581 62.1663 152.872 61.9677C153.162 61.7665 153.466 61.6264 153.785 61.5475C154.103 61.466 154.41 61.4252 154.705 61.4252C154.894 61.4252 155.106 61.4482 155.343 61.494C155.58 61.5373 155.802 61.6277 156.008 61.7652C156.217 61.9027 156.373 62.1103 156.478 62.3878C156.585 62.6654 156.6 63.0372 156.524 63.5032L155.882 67.3689H154.98L155.118 66.5744H155.072C154.991 66.7017 154.866 66.8379 154.698 66.9831C154.532 67.1282 154.322 67.2518 154.067 67.3536C153.815 67.4555 153.519 67.5064 153.177 67.5064ZM153.437 66.6966C153.794 66.6966 154.106 66.6266 154.373 66.4865C154.643 66.3465 154.859 66.1657 155.022 65.9441C155.188 65.7225 155.291 65.4895 155.332 65.2451L155.469 64.42C155.423 64.4658 155.333 64.5078 155.198 64.546C155.063 64.5817 154.91 64.6135 154.74 64.6415C154.572 64.667 154.407 64.6899 154.247 64.7103C154.089 64.7281 153.962 64.7434 153.865 64.7561C153.626 64.7867 153.398 64.8363 153.181 64.9051C152.967 64.9713 152.786 65.0719 152.639 65.2069C152.494 65.3393 152.403 65.5201 152.368 65.7493C152.314 66.0625 152.389 66.2993 152.593 66.4598C152.797 66.6177 153.078 66.6966 153.437 66.6966ZM161.057 61.5016L160.935 62.2656H157.894L158.016 61.5016H161.057ZM159.132 60.0959H160.033L159.101 65.6882C159.06 65.9428 159.067 66.1338 159.12 66.2611C159.176 66.3859 159.26 66.47 159.372 66.5133C159.487 66.554 159.61 66.5744 159.743 66.5744C159.842 66.5744 159.924 66.5693 159.987 66.5591C160.051 66.5464 160.102 66.5362 160.14 66.5285L160.201 67.3383C160.132 67.3613 160.039 67.3842 159.922 67.4071C159.808 67.4326 159.666 67.4453 159.498 67.4453C159.244 67.4453 159.004 67.3905 158.78 67.281C158.556 67.1715 158.384 67.0047 158.264 66.7806C158.145 66.5565 158.113 66.2739 158.169 65.9326L159.132 60.0959ZM161.435 67.3689L162.413 61.5016H163.314L162.336 67.3689H161.435ZM163.139 60.5085C162.963 60.5085 162.811 60.4486 162.684 60.3289C162.559 60.2093 162.497 60.0654 162.497 59.8973C162.497 59.7292 162.559 59.5854 162.684 59.4657C162.811 59.346 162.963 59.2861 163.139 59.2861C163.314 59.2861 163.465 59.346 163.589 59.4657C163.717 59.5854 163.78 59.7292 163.78 59.8973C163.78 60.0654 163.717 60.2093 163.589 60.3289C163.465 60.4486 163.314 60.5085 163.139 60.5085ZM166.409 67.4911C165.869 67.4911 165.417 67.3625 165.053 67.1053C164.689 66.8481 164.432 66.4878 164.282 66.0243C164.134 65.5608 164.11 65.021 164.209 64.4047C164.306 63.8037 164.498 63.2804 164.786 62.8348C165.076 62.3866 165.436 62.0402 165.867 61.7958C166.3 61.5487 166.776 61.4252 167.295 61.4252C167.835 61.4252 168.286 61.5551 168.648 61.8149C169.012 62.0721 169.269 62.4337 169.419 62.8997C169.57 63.3632 169.595 63.9056 169.496 64.5269C169.399 65.1228 169.204 65.6436 168.911 66.0893C168.621 66.5324 168.261 66.8774 167.83 67.1244C167.402 67.3689 166.929 67.4911 166.409 67.4911ZM166.425 66.6813C166.837 66.6813 167.195 66.5756 167.498 66.3643C167.804 66.1529 168.051 65.8741 168.239 65.5277C168.43 65.1814 168.559 64.8071 168.625 64.4047C168.686 64.0227 168.683 63.6675 168.617 63.339C168.551 63.0079 168.41 62.7418 168.193 62.5406C167.977 62.3369 167.672 62.235 167.28 62.235C166.868 62.235 166.507 62.342 166.199 62.5559C165.894 62.7698 165.647 63.0512 165.458 63.4001C165.27 63.749 165.144 64.1246 165.08 64.5269C165.019 64.9089 165.02 65.2642 165.084 65.5927C165.15 65.9186 165.291 66.1822 165.508 66.3834C165.727 66.582 166.032 66.6813 166.425 66.6813ZM171.888 63.8394L171.307 67.3689H170.406L171.384 61.5016H172.255L172.102 62.4184H172.178C172.362 62.1205 172.61 61.8811 172.923 61.7003C173.236 61.5169 173.614 61.4252 174.058 61.4252C174.45 61.4252 174.781 61.5067 175.051 61.6697C175.323 61.8301 175.515 62.0746 175.627 62.4031C175.742 62.7291 175.759 63.1416 175.677 63.6407L175.051 67.3689H174.149L174.76 63.7019C174.837 63.2435 174.777 62.8844 174.581 62.6247C174.387 62.3649 174.08 62.235 173.66 62.235C173.37 62.235 173.101 62.2974 172.854 62.4222C172.61 62.547 172.402 62.7291 172.232 62.9685C172.064 63.2078 171.949 63.4981 171.888 63.8394ZM181.618 62.8157L180.762 63.0448C180.732 62.9073 180.678 62.7749 180.602 62.6476C180.528 62.5177 180.413 62.412 180.258 62.3305C180.105 62.2465 179.896 62.2045 179.632 62.2045C179.273 62.2045 178.961 62.2872 178.696 62.4528C178.431 62.6158 178.279 62.8233 178.241 63.0754C178.203 63.297 178.254 63.4739 178.394 63.6064C178.534 63.7388 178.768 63.847 179.097 63.931L179.937 64.145C180.441 64.2748 180.8 64.4696 181.014 64.7294C181.231 64.9866 181.305 65.3215 181.236 65.734C181.18 66.0702 181.033 66.3706 180.797 66.6355C180.56 66.9003 180.257 67.1091 179.888 67.2619C179.518 67.4147 179.107 67.4911 178.654 67.4911C178.05 67.4911 177.574 67.3613 177.225 67.1015C176.876 66.8392 176.69 66.4598 176.667 65.9632L177.569 65.7493C177.592 66.0625 177.704 66.2993 177.905 66.4598C178.109 66.6177 178.394 66.6966 178.761 66.6966C179.181 66.6966 179.531 66.6075 179.811 66.4292C180.091 66.2484 180.25 66.032 180.289 65.7798C180.327 65.5736 180.286 65.4017 180.166 65.2642C180.049 65.1267 179.846 65.0235 179.555 64.9548L178.623 64.7256C178.104 64.5957 177.74 64.3971 177.531 64.1297C177.324 63.8623 177.256 63.5261 177.324 63.1212C177.38 62.7902 177.523 62.4973 177.752 62.2427C177.984 61.988 178.274 61.7881 178.623 61.643C178.975 61.4978 179.357 61.4252 179.769 61.4252C180.35 61.4252 180.784 61.5526 181.072 61.8072C181.359 62.0593 181.542 62.3955 181.618 62.8157ZM186.199 60.3862L186.336 59.5459H192.204L192.066 60.3862H189.606L188.445 67.3689H187.498L188.659 60.3862H186.199ZM193.839 67.4911C193.276 67.4911 192.811 67.3663 192.444 67.1168C192.078 66.8647 191.822 66.5133 191.676 66.0625C191.531 65.6092 191.508 65.0821 191.608 64.4811C191.707 63.8801 191.904 63.3504 192.2 62.8921C192.495 62.4311 192.863 62.0721 193.304 61.8149C193.744 61.5551 194.228 61.4252 194.755 61.4252C195.061 61.4252 195.355 61.4762 195.638 61.578C195.92 61.6799 196.165 61.8454 196.371 62.0746C196.577 62.3013 196.721 62.6017 196.803 62.9761C196.884 63.3504 196.879 63.8114 196.787 64.3589L196.726 64.7409H192.204L192.326 63.9616H195.932C195.99 63.6306 195.975 63.3352 195.886 63.0754C195.799 62.8157 195.648 62.6107 195.431 62.4604C195.217 62.3102 194.946 62.235 194.618 62.235C194.279 62.235 193.963 62.3267 193.67 62.5101C193.378 62.6909 193.133 62.9201 192.937 63.1976C192.741 63.4727 192.619 63.7528 192.57 64.038L192.463 64.7103C192.387 65.1967 192.398 65.5838 192.498 65.8715C192.6 66.1593 192.777 66.3668 193.029 66.4942C193.281 66.6189 193.597 66.6813 193.976 66.6813C194.218 66.6813 194.441 66.6482 194.644 66.582C194.848 66.5133 195.03 66.4114 195.191 66.2764C195.351 66.1389 195.486 65.9683 195.596 65.7646L196.421 66.009C196.281 66.3044 196.083 66.5642 195.829 66.7883C195.577 67.0098 195.281 67.183 194.942 67.3078C194.606 67.43 194.238 67.4911 193.839 67.4911ZM199.387 67.5064C199.015 67.5064 198.689 67.4364 198.409 67.2963C198.129 67.1537 197.921 66.9487 197.786 66.6813C197.651 66.4114 197.614 66.0854 197.676 65.7035C197.734 65.3673 197.847 65.0948 198.016 64.886C198.184 64.6746 198.387 64.5091 198.627 64.3894C198.869 64.2672 199.128 64.1768 199.406 64.1182C199.686 64.0571 199.965 64.01 200.242 63.9769C200.604 63.931 200.898 63.8954 201.125 63.8699C201.351 63.8445 201.522 63.8024 201.637 63.7439C201.751 63.6853 201.821 63.5847 201.847 63.4421V63.4116C201.908 63.0372 201.858 62.7456 201.698 62.5368C201.537 62.3254 201.251 62.2198 200.838 62.2198C200.411 62.2198 200.053 62.314 199.765 62.5024C199.477 62.6909 199.265 62.8921 199.127 63.106L198.333 62.8004C198.541 62.4439 198.791 62.1663 199.081 61.9677C199.372 61.7665 199.676 61.6264 199.994 61.5475C200.312 61.466 200.619 61.4252 200.915 61.4252C201.103 61.4252 201.316 61.4482 201.553 61.494C201.789 61.5373 202.011 61.6277 202.217 61.7652C202.426 61.9027 202.583 62.1103 202.687 62.3878C202.794 62.6654 202.809 63.0372 202.733 63.5032L202.091 67.3689H201.19L201.327 66.5744H201.281C201.2 66.7017 201.075 66.8379 200.907 66.9831C200.742 67.1282 200.531 67.2518 200.277 67.3536C200.025 67.4555 199.728 67.5064 199.387 67.5064ZM199.647 66.6966C200.003 66.6966 200.315 66.6266 200.582 66.4865C200.852 66.3465 201.069 66.1657 201.232 65.9441C201.397 65.7225 201.5 65.4895 201.541 65.2451L201.679 64.42C201.633 64.4658 201.542 64.5078 201.408 64.546C201.273 64.5817 201.12 64.6135 200.949 64.6415C200.781 64.667 200.617 64.6899 200.456 64.7103C200.298 64.7281 200.171 64.7434 200.074 64.7561C199.835 64.7867 199.607 64.8363 199.391 64.9051C199.177 64.9713 198.996 65.0719 198.848 65.2069C198.703 65.3393 198.613 65.5201 198.577 65.7493C198.524 66.0625 198.599 66.2993 198.802 66.4598C199.006 66.6177 199.288 66.6966 199.647 66.6966ZM203.737 67.3689L204.715 61.5016H205.585L205.433 62.4184H205.509C205.685 62.1052 205.923 61.862 206.223 61.6888C206.526 61.5131 206.869 61.4252 207.251 61.4252C207.633 61.4252 207.94 61.5131 208.171 61.6888C208.403 61.862 208.565 62.1052 208.657 62.4184H208.718C208.916 62.1128 209.181 61.8709 209.512 61.6926C209.846 61.5144 210.223 61.4252 210.643 61.4252C211.162 61.4252 211.562 61.5895 211.842 61.918C212.125 62.2465 212.209 62.7545 212.094 63.4421L211.437 67.3689H210.536L211.193 63.4421C211.262 63.0067 211.193 62.6972 210.987 62.5139C210.783 62.328 210.521 62.235 210.2 62.235C209.787 62.235 209.447 62.3586 209.18 62.6056C208.913 62.8526 208.748 63.1671 208.687 63.5491L208.045 67.3689H207.129L207.801 63.3504C207.854 63.0143 207.791 62.7444 207.61 62.5406C207.429 62.3369 207.167 62.235 206.823 62.235C206.589 62.235 206.36 62.2987 206.136 62.426C205.911 62.5508 205.719 62.724 205.559 62.9455C205.398 63.1645 205.295 63.4166 205.249 63.7019L204.638 67.3689H203.737Z" fill="black"/>
    <rect x="72.0098" width="8.96387" height="28.9832" fill="#1ED78D"/>
    <rect x="72.0098" y="28.9832" width="8.96387" height="28.9832" fill="#64F1B4"/>
    <rect x="72.0098" y="57.9663" width="8.96387" height="28.9832" fill="#A0FACE"/>
    <defs>
    <clipPath id="clip0_14_270">
    <rect width="51.3928" height="70.0812" fill="white" transform="translate(0 8.36621)"/>
    </clipPath>
    </defs>
    </svg>
    